<?xml version="1.0" encoding="UTF-8" standalone="no"?>
<!-- Created with Inkscape (http://www.inkscape.org/) -->

<svg
   width="36.0px"
   height="36.0px"
   viewBox="0 0 36.0 36.0"
   version="1.1"
   id="SVGRoot"
   sodipodi:docname="paintbrush_icon.svg"
   inkscape:version="1.2.2 (b0a8486541, 2022-12-01)"
   xmlns:inkscape="http://www.inkscape.org/namespaces/inkscape"
   xmlns:sodipodi="http://sodipodi.sourceforge.net/DTD/sodipodi-0.dtd"
   xmlns="http://www.w3.org/2000/svg"
   xmlns:svg="http://www.w3.org/2000/svg">
  <defs
     id="defs123" />
  <g
     inkscape:label="Layer 1"
     inkscape:groupmode="layer"
     id="layer1">
    <rect
       style="fill:#6c5353;stroke-width:1.21107"
       id="rect1128"
       width="2.3862257"
       height="21.584974"
       x="-31.635918"
       y="-4.1745567"
       inkscape:transform-center-x="-0.077956083"
       inkscape:transform-center-y="-0.55465302"
       transform="matrix(-0.87336535,-0.48706567,0.58003725,-0.81458995,0,0)" />
    <path
       style="fill:#e6e6e6"
       d="m 11.102269,26.524835 c 0.114837,0.01425 0.228794,0.04276 0.344512,0.04276 0.319828,0 0.977325,-0.551952 1.176094,-0.759082 0.03737,-0.03895 0.157499,-0.0724 0.190075,-0.09622 0.243831,-0.178293 0.819172,-0.773061 1.021656,-1.004986 0.166663,-0.190895 0.360078,-0.373832 0.510826,-0.577329 0.08008,-0.108107 0.126858,-0.245182 0.213837,-0.352815 0.169981,-0.210344 0.387306,-0.406822 0.593986,-0.577329 0.08486,-0.07001 0.141878,-0.184541 0.213833,-0.267286 0.352548,-0.40541 0.681048,-0.804959 0.997898,-1.240191 0.253173,-0.347764 0.343989,-0.76424 0.629627,-1.090511 0.408626,-0.466754 0.670186,-0.978288 1.211731,-1.293649 0.04338,-0.02526 0.0826,-0.08926 0.130676,-0.07484 0.0087,0.0026 0.0644,0.367604 0.07128,0.406271 0.03716,0.209046 0.06329,1.45603 0.225715,1.539549 0.195329,0.100441 0.456527,-0.08449 0.641507,-0.128295 0.09409,-0.02228 0.189438,-0.03944 0.28511,-0.05346 0.03306,-0.0048 0.545557,-0.09342 0.570228,-0.05346 0.106263,0.172141 -0.314227,0.711018 -0.07128,0.951529 0.08551,0.08466 1.076311,0.03025 1.25925,0.06415 0.170391,0.03157 0.627317,0.227486 0.617745,0.416958 -0.006,0.119613 -0.214452,0.470989 -0.118798,0.566643 0.231265,0.231265 0.552621,-0.02764 0.724663,0.320739 0.03489,0.07066 0.01584,0.156806 0.02376,0.235209 0.06112,0.605105 -0.503294,0.894239 -0.7603,1.389869 -0.535045,1.031822 -0.885474,2.392466 -1.924514,3.047026 -0.379377,0.238994 -0.801418,0.236575 -1.223614,0.34212 -0.132648,0.03316 -0.733923,0.393228 -0.807819,0.459728 -0.08496,0.07646 -0.102235,0.203531 -0.190075,0.288663 -0.336296,0.325928 -0.677285,0.735854 -1.057296,1.015677 -0.136209,0.100297 -0.335453,0.178926 -0.451432,0.299357 -0.198612,0.206238 -0.444031,0.522958 -0.724662,0.620096 -0.21884,0.07575 -0.555606,0.114899 -0.784062,0.08553 -0.127155,-0.01635 -0.320715,-0.810362 -0.451427,-0.951525 -0.254589,-0.274945 -1.008962,-0.46932 -1.104816,-0.598715 -0.234164,-0.316101 0.343234,-0.798785 -0.118798,-0.983601 -0.222992,-0.0892 -0.278271,0.284951 -0.463306,0.09622 -0.359266,-0.366437 0.01668,-0.856228 -0.487068,-1.133282 -0.182149,-0.100179 -0.368959,-0.05088 -0.534588,0.05346 -0.105996,0.06677 -0.230957,0.64135 -0.36827,0.245901 -0.03881,-0.111772 -0.06248,-0.223309 -0.07128,-0.34212 -0.01057,-0.142666 -0.0064,-0.284396 -0.01188,-0.427653 -0.01152,-0.300584 -0.04539,-0.01611 0.07128,-0.48111 z"
       id="path322" />
    <path
       style="fill:#ff7f2a"
       d="m 0.76023865,33.180357 c 0.45482735,0.943612 0.0589184,0.224723 1.08668575,0.571583 0.1690244,0.05704 2.6949384,0.517195 2.8648484,0.571175 0.1283228,0.04076 0.1996879,0.110111 0.3326299,0.13899 0.9342826,0.202953 2.5176929,-0.03149 3.4807581,-0.149681 1.2981822,-0.159316 2.6020922,-0.310185 3.8490292,-0.72701 0.392255,-0.131123 0.740838,-0.370778 1.104816,-0.534563 0.327947,-0.147571 0.6848,-0.196365 1.021656,-0.310048 0.198221,-0.0669 0.878904,-0.413709 0.986015,-0.523876 0.08423,-0.08664 0.12396,-0.147127 0.237595,-0.213824 0.127973,-0.07511 0.653969,-0.279027 0.712783,-0.384891 0.421512,-0.758697 0.946349,-1.290017 1.568123,-1.849597 0.08117,-0.07305 0.20007,-0.0934 0.285114,-0.160367 0.332124,-0.261542 0.622928,-0.611096 0.926617,-0.898072 0.220551,-0.208414 0.513513,-0.325202 0.724662,-0.555948 0.129019,-0.140993 0.185496,-0.358807 0.296994,-0.513182 0.07046,-0.09756 0.332634,-0.25419 0.332634,-0.363505 0,-0.03445 -0.0411,0.05824 -0.07128,0.07484 -0.157775,0.08677 -0.236411,0.116402 -0.392029,0.213828 -0.332311,0.208047 -0.789524,0.313687 -1.152332,0.470415 -0.255058,0.110182 -0.518325,0.161565 -0.760303,0.310048 -0.284883,0.17481 -0.274669,0.38618 -0.439549,0.534567 -0.203054,0.182744 -1.954828,1.488061 -2.126472,1.539549 -0.104873,0.03146 -0.345796,-0.0038 -0.463306,-0.02138 -0.06528,-0.0098 -0.195638,-0.07415 -0.225716,-0.128296 -0.246618,-0.443923 -0.590393,-0.848659 -1.021656,-1.133281 -0.04937,-0.03258 -0.236426,-0.175443 -0.249473,-0.2459 -0.02108,-0.11383 0.147801,-0.398406 0.07128,-0.513182 -0.02785,-0.04176 -0.08139,0.06533 -0.130677,0.07484 -0.08415,0.01623 -0.231249,0.03297 -0.308872,-0.01069 -0.251077,-0.141224 -0.348369,-0.934815 -0.641506,-1.154663 -0.143453,-0.107588 -0.94679,-0.0731 -1.009777,-0.384886 -0.05996,-0.29678 0.44618,-0.293341 0.475414,-0.582773 0.0064,-0.0638 1.125859,-0.153648 0.332136,-0.347147 -0.02077,-0.0051 -0.10884,0.351813 -0.13022,0.351813 -0.04054,0 -0.735372,0.05535 -0.760486,0.08509 -0.132404,0.156786 -0.30652,-0.02754 -0.42767,0.140196 -0.335774,0.46489 -0.294489,0.575981 -0.795944,0.983601 -0.229122,0.186247 -0.4853413,0.337247 -0.7127839,0.523877 -0.2848111,0.233703 -0.4965041,0.520499 -0.7602993,0.769772 -0.1395847,0.1319 -0.3431007,0.210231 -0.4989511,0.320738 -0.356236,0.252593 -0.6994052,0.515204 -1.0454137,0.780468 -0.1672376,0.12821 -0.3698776,0.204693 -0.5227089,0.352814 -0.2320389,0.224888 -0.439665,0.502573 -0.6771429,0.716315 -0.2032738,0.182957 -0.5877478,0.103066 -0.8197021,0.245901 -0.1404105,0.08646 -0.2411422,0.20038 -0.3920286,0.277976 -0.177021,0.09103 -0.361787,0.154908 -0.5345878,0.256591 -0.2189747,0.128853 -0.4463972,0.32829 -0.6890218,0.406271 -0.3652615,0.117397 -0.7309244,0.05241 -1.1048164,0.07484 -0.4010216,0.02406 -1.0063009,0.06449 -1.2859602,0.356925 z"
       id="path257"
       sodipodi:nodetypes="cssssssssscscsssscsssssccssccssscsssssssssssssssssc" />
    <path
       style="fill:#999999"
       d="m 22.292967,23.092923 c -0.175248,-0.157719 -0.282723,-0.263553 -0.451431,-0.395581 -0.254105,-0.198858 -0.533569,-0.362592 -0.772179,-0.57733 -0.117562,-0.105801 -0.18959,-0.221515 -0.320755,-0.310048 -0.222968,-0.150497 -0.442072,-0.273499 -0.629623,-0.470419 -0.134917,-0.141657 -0.222372,-0.157347 -0.154438,-0.09622 0.03667,0.033 0.465092,-0.23785 0.534588,-0.288667 0.462735,-0.338363 1.216346,-1.209664 1.580001,-1.667845 0.220999,-0.278444 0.434955,-0.578849 0.629628,-0.876686 0.105069,-0.16075 0.155267,-0.338454 0.273231,-0.491801 0.09303,-0.120932 0.107727,-0.12591 0.154438,-0.235209 0.01924,-0.04502 -0.0014,-0.138986 0.04752,-0.138986 0.0058,0 0.942291,0.598339 0.997894,0.641477 0.172778,0.134045 0.948713,0.432299 1.009777,0.555948 0.0074,0.01501 -0.226541,0.250332 -0.344513,0.406271 -0.171969,0.227313 -0.373235,0.463494 -0.522705,0.705625 -0.357528,0.579171 0.01255,0.01518 -0.154438,0.374196 -0.133132,0.286219 -0.270174,0.460237 -0.439549,0.716319 -0.174676,0.264099 -0.305024,0.569205 -0.46331,0.844611 -0.112937,0.196502 -0.291118,0.379697 -0.38015,0.588024 -0.06701,0.156793 -0.155173,0.520675 -0.308872,0.620096 -0.08422,0.05448 -0.190076,0.06415 -0.285114,0.09622 z"
       id="path779" />
    <path
       style="fill:#e6e6e6;stroke-width:1.16452"
       d="m 20.12051,21.371621 c -0.354934,-0.311368 -0.761792,-0.553758 -1.14451,-0.828898 -0.100866,-0.07252 -1.47075,-0.827816 -1.398844,-0.889848 0.0543,-0.04684 0.198266,-0.01965 0.310852,-0.121897 0.290096,-0.263436 0.563804,-0.678203 0.720618,-1.023929 0.266956,-0.588553 0.495063,-1.229662 0.876044,-1.7675 0.172859,-0.244028 0.39423,-0.444283 0.593453,-0.670432 0.06619,-0.07514 0.334735,-0.5129 0.452152,-0.524154 0.370845,-0.03555 2.128794,1.054286 2.387927,1.389616 0.06651,0.08607 0.06096,0.174478 0.155432,0.255985 0.136195,0.1175 0.314193,0.193673 0.438021,0.316935 0.09918,0.09874 0.413149,0.58733 0.155427,0.231601"
       id="path893" />
    <path
       style="fill:#666666;stroke-width:1.09101"
       d="m 17.552959,19.765341 c 0.121354,-0.02408 0.240622,-0.07226 0.364063,-0.07226 0.194089,0 0.391823,0.230502 0.539818,0.325147 0.500842,0.320293 1.007306,0.547691 1.468802,0.939306 0.421438,0.357622 0.757666,0.761868 1.20517,1.083818 0.350179,0.251933 0.837509,0.532313 1.079632,0.830927 0.03405,0.042 0.152767,0.313101 0.20086,0.313101 0.05452,0 -0.166477,0.03748 -0.238523,0.180637 -0.05198,0.103278 -0.0438,0.246751 -0.12554,0.325147 -0.02799,0.02685 0.01449,-0.08337 0,-0.120425 -0.02393,-0.06124 -0.210524,-0.209793 -0.276183,-0.276975 -0.233879,-0.23931 -0.58043,-0.397921 -0.790896,-0.65029 -0.122196,-0.146524 -0.223695,-0.257445 -0.364058,-0.385358 -0.973832,-0.887463 -1.976235,-1.770971 -3.063145,-2.49278 z"
       id="path958" />
    <rect
       style="fill:#916f6f;stroke-width:1.58957"
       id="rect1128-3"
       width="3.1958995"
       height="27.764275"
       x="-29.576777"
       y="-4.8785543"
       inkscape:transform-center-x="-0.10663834"
       inkscape:transform-center-y="-0.68933905"
       transform="matrix(-0.89202919,-0.4519778,0.61685887,-0.78707378,0,0)" />
  </g>
</svg>
